<svg xmlns="http://www.w3.org/2000/svg" xmlns:xlink="http://www.w3.org/1999/xlink" width="1920" zoomAndPan="magnify" viewBox="0 0 1440 809.999993" height="1080" preserveAspectRatio="xMidYMid meet" version="1.0"><defs><g/></defs><path fill="#ebb450" d="M 426 297 L 1014 297 L 1014 513 L 426 513 Z M 426 297 " fill-opacity="1" fill-rule="nonzero"/><path fill="#000000" d="M 822 381 L 978 381 L 978 429 L 822 429 Z M 822 381 " fill-opacity="1" fill-rule="nonzero"/><g fill="#000000" fill-opacity="1"><g transform="translate(477.667951, 410.624999)"><g/></g></g><g fill="#000000" fill-opacity="1"><g transform="translate(481.593732, 410.624999)"><g><path d="M 3.046875 0 L 1.734375 0 L 1.734375 -11.421875 L 3.375 -11.421875 L 8.953125 -2.703125 L 9.140625 -2.734375 L 9.140625 -11.421875 L 10.453125 -11.421875 L 10.453125 0 L 9.046875 0 L 3.234375 -9.34375 L 3.046875 -9.3125 Z M 3.046875 0 "/></g></g></g><g fill="#000000" fill-opacity="1"><g transform="translate(493.770451, 410.624999)"><g><path d="M 3.078125 -5.390625 L 3.078125 -1.109375 L 8.890625 -1.109375 L 8.890625 0 L 1.734375 0 L 1.734375 -11.421875 L 8.765625 -11.421875 L 8.765625 -10.3125 L 3.078125 -10.3125 L 3.078125 -6.5 L 8.09375 -6.5 L 8.09375 -5.390625 Z M 3.078125 -5.390625 "/></g></g></g><g fill="#000000" fill-opacity="1"><g transform="translate(503.416538, 410.624999)"><g><path d="M 5 0 L 3.234375 0 L 0.625 -11.421875 L 1.953125 -11.421875 L 4.09375 -1.984375 L 4.296875 -1.984375 L 6.859375 -11.421875 L 8.09375 -11.421875 L 10.65625 -1.984375 L 10.859375 -1.984375 L 13.015625 -11.421875 L 14.296875 -11.421875 L 11.6875 0 L 9.921875 0 L 7.546875 -8.65625 L 7.375 -8.65625 Z M 5 0 "/></g></g></g><g fill="#000000" fill-opacity="1"><g transform="translate(536.953104, 424.124999)"><g><path d="M 31.390625 0 L 24.1875 0 L 23.25 -8.234375 L 9.671875 -8.234375 L 5.296875 0 L -2.3125 0 L 17.484375 -35.6875 L 26.5625 -35.6875 Z M 20.34375 -28.25 L 12.84375 -14.15625 L 22.5625 -14.15625 L 20.953125 -28.25 Z M 20.34375 -28.25 "/></g></g></g><g fill="#000000" fill-opacity="1"><g transform="translate(571.737706, 424.124999)"><g><path d="M 1.78125 0 L 9.34375 -35.6875 L 22.953125 -35.6875 C 25.035156 -35.6875 26.820312 -35.367188 28.3125 -34.734375 C 29.8125 -34.109375 30.953125 -33.195312 31.734375 -32 C 32.515625 -30.800781 32.90625 -29.367188 32.90625 -27.703125 C 32.90625 -26.910156 32.8125 -26.054688 32.625 -25.140625 C 32.195312 -23.109375 31.238281 -21.410156 29.75 -20.046875 C 28.257812 -18.679688 26.457031 -17.84375 24.34375 -17.53125 L 24.21875 -17.015625 C 25.28125 -16.515625 26.066406 -15.785156 26.578125 -14.828125 C 27.085938 -13.878906 27.445312 -12.484375 27.65625 -10.640625 L 28.09375 -6.953125 L 28.984375 0 L 21.875 0 L 21.75 -1 C 21.625 -2.070312 21.46875 -3.414062 21.28125 -5.03125 C 21.09375 -6.644531 20.882812 -8.523438 20.65625 -10.671875 C 20.519531 -11.742188 20.289062 -12.578125 19.96875 -13.171875 C 19.644531 -13.765625 19.164062 -14.195312 18.53125 -14.46875 C 17.894531 -14.738281 17.023438 -14.875 15.921875 -14.875 L 11.984375 -14.875 L 8.84375 0 Z M 19.609375 -20.453125 C 21.398438 -20.453125 22.78125 -20.832031 23.75 -21.59375 C 24.726562 -22.363281 25.378906 -23.515625 25.703125 -25.046875 C 25.816406 -25.554688 25.875 -26.046875 25.875 -26.515625 C 25.875 -27.722656 25.492188 -28.625 24.734375 -29.21875 C 23.984375 -29.8125 22.910156 -30.109375 21.515625 -30.109375 L 15.234375 -30.109375 L 13.1875 -20.453125 Z M 19.609375 -20.453125 "/></g></g></g><g fill="#000000" fill-opacity="1"><g transform="translate(605.106513, 424.124999)"><g><path d="M 1.78125 0 L 9.34375 -35.6875 L 22.953125 -35.6875 C 25.035156 -35.6875 26.820312 -35.367188 28.3125 -34.734375 C 29.8125 -34.109375 30.953125 -33.195312 31.734375 -32 C 32.515625 -30.800781 32.90625 -29.367188 32.90625 -27.703125 C 32.90625 -26.910156 32.8125 -26.054688 32.625 -25.140625 C 32.195312 -23.109375 31.238281 -21.410156 29.75 -20.046875 C 28.257812 -18.679688 26.457031 -17.84375 24.34375 -17.53125 L 24.21875 -17.015625 C 25.28125 -16.515625 26.066406 -15.785156 26.578125 -14.828125 C 27.085938 -13.878906 27.445312 -12.484375 27.65625 -10.640625 L 28.09375 -6.953125 L 28.984375 0 L 21.875 0 L 21.75 -1 C 21.625 -2.070312 21.46875 -3.414062 21.28125 -5.03125 C 21.09375 -6.644531 20.882812 -8.523438 20.65625 -10.671875 C 20.519531 -11.742188 20.289062 -12.578125 19.96875 -13.171875 C 19.644531 -13.765625 19.164062 -14.195312 18.53125 -14.46875 C 17.894531 -14.738281 17.023438 -14.875 15.921875 -14.875 L 11.984375 -14.875 L 8.84375 0 Z M 19.609375 -20.453125 C 21.398438 -20.453125 22.78125 -20.832031 23.75 -21.59375 C 24.726562 -22.363281 25.378906 -23.515625 25.703125 -25.046875 C 25.816406 -25.554688 25.875 -26.046875 25.875 -26.515625 C 25.875 -27.722656 25.492188 -28.625 24.734375 -29.21875 C 23.984375 -29.8125 22.910156 -30.109375 21.515625 -30.109375 L 15.234375 -30.109375 L 13.1875 -20.453125 Z M 19.609375 -20.453125 "/></g></g></g><g fill="#000000" fill-opacity="1"><g transform="translate(638.47532, 424.124999)"><g><path d="M 8.84375 0 L 1.78125 0 L 9.34375 -35.6875 L 16.40625 -35.6875 Z M 8.84375 0 "/></g></g></g><g fill="#000000" fill-opacity="1"><g transform="translate(654.805775, 424.124999)"><g><path d="M 18.453125 0 L 9.84375 0 L 5.34375 -35.6875 L 12.578125 -35.6875 L 15.40625 -9.078125 L 16.015625 -9.078125 L 30.109375 -35.6875 L 37.96875 -35.6875 Z M 18.453125 0 "/></g></g></g><g fill="#000000" fill-opacity="1"><g transform="translate(688.687197, 424.124999)"><g><path d="M 31.390625 0 L 24.1875 0 L 23.25 -8.234375 L 9.671875 -8.234375 L 5.296875 0 L -2.3125 0 L 17.484375 -35.6875 L 26.5625 -35.6875 Z M 20.34375 -28.25 L 12.84375 -14.15625 L 22.5625 -14.15625 L 20.953125 -28.25 Z M 20.34375 -28.25 "/></g></g></g><g fill="#000000" fill-opacity="1"><g transform="translate(723.471799, 424.124999)"><g><path d="M 16.40625 -35.6875 L 10.078125 -5.90625 L 26.125 -5.90625 L 24.875 0 L 1.78125 0 L 9.34375 -35.6875 Z M 16.40625 -35.6875 "/></g></g></g><g fill="#000000" fill-opacity="1"><g transform="translate(752.373519, 424.124999)"><g><path d="M 12.890625 0.515625 C 10.597656 0.515625 8.566406 0.191406 6.796875 -0.453125 C 5.035156 -1.109375 3.59375 -1.960938 2.46875 -3.015625 C 1.34375 -4.066406 0.53125 -5.21875 0.03125 -6.46875 L 4.765625 -10.8125 L 5.375 -10.8125 C 6.101562 -9.21875 7.191406 -7.945312 8.640625 -7 C 10.085938 -6.0625 11.921875 -5.59375 14.140625 -5.59375 C 16.003906 -5.59375 17.503906 -5.972656 18.640625 -6.734375 C 19.785156 -7.503906 20.5 -8.539062 20.78125 -9.84375 C 20.875 -10.28125 20.921875 -10.6875 20.921875 -11.0625 C 20.921875 -11.988281 20.609375 -12.75 19.984375 -13.34375 C 19.359375 -13.9375 18.328125 -14.4375 16.890625 -14.84375 L 13.40625 -15.828125 C 10.8125 -16.554688 8.785156 -17.691406 7.328125 -19.234375 C 5.878906 -20.785156 5.15625 -22.664062 5.15625 -24.875 C 5.15625 -25.59375 5.242188 -26.375 5.421875 -27.21875 C 6.003906 -29.925781 7.4375 -32.097656 9.71875 -33.734375 C 12 -35.378906 15.328125 -36.203125 19.703125 -36.203125 C 22.472656 -36.203125 24.804688 -35.8125 26.703125 -35.03125 C 28.597656 -34.25 30.113281 -33.054688 31.25 -31.453125 L 26.78125 -27 L 26.171875 -27 C 25.367188 -28.0625 24.375 -28.851562 23.1875 -29.375 C 22 -29.90625 20.566406 -30.171875 18.890625 -30.171875 C 16.992188 -30.171875 15.46875 -29.851562 14.3125 -29.21875 C 13.15625 -28.582031 12.460938 -27.726562 12.234375 -26.65625 C 12.148438 -26.28125 12.109375 -25.957031 12.109375 -25.6875 C 12.109375 -24.789062 12.425781 -24.046875 13.0625 -23.453125 C 13.707031 -22.867188 14.679688 -22.410156 15.984375 -22.078125 L 19.890625 -21.015625 C 22.597656 -20.285156 24.660156 -19.210938 26.078125 -17.796875 C 27.503906 -16.378906 28.21875 -14.53125 28.21875 -12.25 C 28.21875 -11.394531 28.113281 -10.492188 27.90625 -9.546875 C 26.46875 -2.835938 21.460938 0.515625 12.890625 0.515625 Z M 12.890625 0.515625 "/></g></g></g><g fill="#d9d9d9" fill-opacity="1"><g transform="translate(855.820276, 410.624999)"><g><path d="M 5 0.171875 C 4.28125 0.171875 3.632812 0.0703125 3.0625 -0.125 C 2.488281 -0.320312 2.007812 -0.578125 1.625 -0.890625 C 1.25 -1.210938 0.96875 -1.566406 0.78125 -1.953125 L 1.515625 -2.84375 L 1.71875 -2.84375 C 2.425781 -1.644531 3.519531 -1.046875 5 -1.046875 C 5.851562 -1.046875 6.488281 -1.222656 6.90625 -1.578125 C 7.332031 -1.941406 7.546875 -2.445312 7.546875 -3.09375 C 7.546875 -3.46875 7.472656 -3.785156 7.328125 -4.046875 C 7.191406 -4.304688 6.960938 -4.523438 6.640625 -4.703125 C 6.328125 -4.890625 5.898438 -5.050781 5.359375 -5.1875 L 4.015625 -5.515625 C 3.023438 -5.753906 2.289062 -6.132812 1.8125 -6.65625 C 1.34375 -7.1875 1.109375 -7.851562 1.109375 -8.65625 C 1.109375 -9.21875 1.253906 -9.722656 1.546875 -10.171875 C 1.835938 -10.617188 2.265625 -10.96875 2.828125 -11.21875 C 3.390625 -11.46875 4.0625 -11.59375 4.84375 -11.59375 C 5.707031 -11.59375 6.429688 -11.46875 7.015625 -11.21875 C 7.609375 -10.976562 8.082031 -10.617188 8.4375 -10.140625 L 7.78125 -9.25 L 7.59375 -9.25 C 7.257812 -9.65625 6.867188 -9.953125 6.421875 -10.140625 C 5.972656 -10.328125 5.445312 -10.421875 4.84375 -10.421875 C 4.050781 -10.421875 3.453125 -10.265625 3.046875 -9.953125 C 2.648438 -9.648438 2.453125 -9.226562 2.453125 -8.6875 C 2.453125 -8.164062 2.597656 -7.753906 2.890625 -7.453125 C 3.191406 -7.148438 3.691406 -6.914062 4.390625 -6.75 L 5.765625 -6.421875 C 6.867188 -6.160156 7.671875 -5.757812 8.171875 -5.21875 C 8.671875 -4.675781 8.921875 -3.988281 8.921875 -3.15625 C 8.921875 -2.507812 8.773438 -1.9375 8.484375 -1.4375 C 8.191406 -0.9375 7.75 -0.539062 7.15625 -0.25 C 6.570312 0.03125 5.851562 0.171875 5 0.171875 Z M 5 0.171875 "/></g></g></g><g fill="#d9d9d9" fill-opacity="1"><g transform="translate(865.606953, 410.624999)"><g><path d="M 9.015625 -6.796875 L 9.015625 -11.421875 L 10.34375 -11.421875 L 10.34375 0 L 9.015625 0 L 9.015625 -5.65625 L 3.078125 -5.65625 L 3.078125 0 L 1.734375 0 L 1.734375 -11.421875 L 3.078125 -11.421875 L 3.078125 -6.796875 Z M 9.015625 -6.796875 "/></g></g></g><g fill="#d9d9d9" fill-opacity="1"><g transform="translate(877.682129, 410.624999)"><g><path d="M 6.265625 0.171875 C 5.273438 0.171875 4.394531 -0.0390625 3.625 -0.46875 C 2.851562 -0.90625 2.242188 -1.5625 1.796875 -2.4375 C 1.359375 -3.3125 1.140625 -4.40625 1.140625 -5.71875 C 1.140625 -7.019531 1.359375 -8.109375 1.796875 -8.984375 C 2.242188 -9.867188 2.851562 -10.523438 3.625 -10.953125 C 4.394531 -11.378906 5.273438 -11.59375 6.265625 -11.59375 C 7.253906 -11.59375 8.132812 -11.378906 8.90625 -10.953125 C 9.675781 -10.523438 10.28125 -9.867188 10.71875 -8.984375 C 11.164062 -8.109375 11.390625 -7.019531 11.390625 -5.71875 C 11.390625 -4.40625 11.164062 -3.3125 10.71875 -2.4375 C 10.28125 -1.5625 9.675781 -0.90625 8.90625 -0.46875 C 8.132812 -0.0390625 7.253906 0.171875 6.265625 0.171875 Z M 6.265625 -1.078125 C 7.453125 -1.078125 8.363281 -1.445312 9 -2.1875 C 9.632812 -2.9375 9.953125 -4.113281 9.953125 -5.71875 C 9.953125 -7.320312 9.632812 -8.492188 9 -9.234375 C 8.363281 -9.972656 7.453125 -10.34375 6.265625 -10.34375 C 3.804688 -10.34375 2.578125 -8.800781 2.578125 -5.71875 C 2.578125 -2.625 3.804688 -1.078125 6.265625 -1.078125 Z M 6.265625 -1.078125 "/></g></g></g><g fill="#d9d9d9" fill-opacity="1"><g transform="translate(890.210319, 410.624999)"><g><path d="M 5.8125 -11.421875 C 6.601562 -11.421875 7.28125 -11.28125 7.84375 -11 C 8.40625 -10.71875 8.832031 -10.316406 9.125 -9.796875 C 9.414062 -9.273438 9.5625 -8.660156 9.5625 -7.953125 C 9.5625 -7.242188 9.414062 -6.628906 9.125 -6.109375 C 8.832031 -5.585938 8.40625 -5.179688 7.84375 -4.890625 C 7.28125 -4.609375 6.601562 -4.46875 5.8125 -4.46875 L 3.078125 -4.46875 L 3.078125 0 L 1.734375 0 L 1.734375 -11.421875 Z M 5.78125 -5.625 C 7.363281 -5.625 8.15625 -6.398438 8.15625 -7.953125 C 8.15625 -9.503906 7.363281 -10.28125 5.78125 -10.28125 L 3.078125 -10.28125 L 3.078125 -5.625 Z M 5.78125 -5.625 "/></g></g></g><g fill="#d9d9d9" fill-opacity="1"><g transform="translate(900.621844, 410.624999)"><g/></g></g><g fill="#d9d9d9" fill-opacity="1"><g transform="translate(904.542762, 410.624999)"><g><path d="M 3.046875 0 L 1.734375 0 L 1.734375 -11.421875 L 3.375 -11.421875 L 8.953125 -2.703125 L 9.140625 -2.734375 L 9.140625 -11.421875 L 10.453125 -11.421875 L 10.453125 0 L 9.046875 0 L 3.234375 -9.34375 L 3.046875 -9.3125 Z M 3.046875 0 "/></g></g></g><g fill="#d9d9d9" fill-opacity="1"><g transform="translate(916.719481, 410.624999)"><g><path d="M 6.265625 0.171875 C 5.273438 0.171875 4.394531 -0.0390625 3.625 -0.46875 C 2.851562 -0.90625 2.242188 -1.5625 1.796875 -2.4375 C 1.359375 -3.3125 1.140625 -4.40625 1.140625 -5.71875 C 1.140625 -7.019531 1.359375 -8.109375 1.796875 -8.984375 C 2.242188 -9.867188 2.851562 -10.523438 3.625 -10.953125 C 4.394531 -11.378906 5.273438 -11.59375 6.265625 -11.59375 C 7.253906 -11.59375 8.132812 -11.378906 8.90625 -10.953125 C 9.675781 -10.523438 10.28125 -9.867188 10.71875 -8.984375 C 11.164062 -8.109375 11.390625 -7.019531 11.390625 -5.71875 C 11.390625 -4.40625 11.164062 -3.3125 10.71875 -2.4375 C 10.28125 -1.5625 9.675781 -0.90625 8.90625 -0.46875 C 8.132812 -0.0390625 7.253906 0.171875 6.265625 0.171875 Z M 6.265625 -1.078125 C 7.453125 -1.078125 8.363281 -1.445312 9 -2.1875 C 9.632812 -2.9375 9.953125 -4.113281 9.953125 -5.71875 C 9.953125 -7.320312 9.632812 -8.492188 9 -9.234375 C 8.363281 -9.972656 7.453125 -10.34375 6.265625 -10.34375 C 3.804688 -10.34375 2.578125 -8.800781 2.578125 -5.71875 C 2.578125 -2.625 3.804688 -1.078125 6.265625 -1.078125 Z M 6.265625 -1.078125 "/></g></g></g><g fill="#d9d9d9" fill-opacity="1"><g transform="translate(929.247671, 410.624999)"><g><path d="M 5 0 L 3.234375 0 L 0.625 -11.421875 L 1.953125 -11.421875 L 4.09375 -1.984375 L 4.296875 -1.984375 L 6.859375 -11.421875 L 8.09375 -11.421875 L 10.65625 -1.984375 L 10.859375 -1.984375 L 13.015625 -11.421875 L 14.296875 -11.421875 L 11.6875 0 L 9.921875 0 L 7.546875 -8.65625 L 7.375 -8.65625 Z M 5 0 "/></g></g></g></svg>