<svg xmlns="http://www.w3.org/2000/svg" xmlns:xlink="http://www.w3.org/1999/xlink" width="1920" zoomAndPan="magnify" viewBox="0 0 1440 809.999993" height="1080" preserveAspectRatio="xMidYMid meet" version="1.0"><defs><g/><clipPath id="749d97cc4b"><path d="M 798 384.0625 L 942 384.0625 L 942 425.9375 L 798 425.9375 Z M 798 384.0625 " clip-rule="nonzero"/></clipPath></defs><path fill="#ebb450" d="M 426 309 L 1014 309 L 1014 501 L 426 501 Z M 426 309 " fill-opacity="1" fill-rule="nonzero"/><g clip-path="url(#749d97cc4b)"><path fill="#000000" d="M 798 384.0625 L 942 384.0625 L 942 425.9375 L 798 425.9375 Z M 798 384.0625 " fill-opacity="1" fill-rule="nonzero"/></g><g fill="#000000" fill-opacity="1"><g transform="translate(518.472636, 410.624999)"><g><path d="M 8.921875 -11.421875 L 8.921875 -10.28125 L 5.34375 -10.28125 L 5.34375 0 L 4 0 L 4 -10.28125 L 0.421875 -10.28125 L 0.421875 -11.421875 Z M 8.921875 -11.421875 "/></g></g></g><g fill="#000000" fill-opacity="1"><g transform="translate(527.798484, 410.624999)"><g><path d="M 9.015625 -6.796875 L 9.015625 -11.421875 L 10.34375 -11.421875 L 10.34375 0 L 9.015625 0 L 9.015625 -5.65625 L 3.078125 -5.65625 L 3.078125 0 L 1.734375 0 L 1.734375 -11.421875 L 3.078125 -11.421875 L 3.078125 -6.796875 Z M 9.015625 -6.796875 "/></g></g></g><g fill="#000000" fill-opacity="1"><g transform="translate(539.873659, 410.624999)"><g><path d="M 3.078125 -5.390625 L 3.078125 -1.109375 L 8.890625 -1.109375 L 8.890625 0 L 1.734375 0 L 1.734375 -11.421875 L 8.765625 -11.421875 L 8.765625 -10.3125 L 3.078125 -10.3125 L 3.078125 -6.5 L 8.09375 -6.5 L 8.09375 -5.390625 Z M 3.078125 -5.390625 "/></g></g></g><g fill="#000000" fill-opacity="1"><g transform="translate(564.07029, 424.124999)"><g><path d="M 29.5625 -22.265625 L 32.421875 -35.6875 L 39.453125 -35.6875 L 31.890625 0 L 24.859375 0 L 28.296875 -16.265625 L 12.28125 -16.265625 L 8.84375 0 L 1.78125 0 L 9.34375 -35.6875 L 16.40625 -35.6875 L 13.546875 -22.265625 Z M 29.5625 -22.265625 "/></g></g></g><g fill="#000000" fill-opacity="1"><g transform="translate(603.444018, 424.124999)"><g><path d="M 17.21875 0.515625 C 14.425781 0.515625 11.992188 0.00390625 9.921875 -1.015625 C 7.847656 -2.035156 6.238281 -3.566406 5.09375 -5.609375 C 3.945312 -7.660156 3.375 -10.191406 3.375 -13.203125 C 3.375 -15.078125 3.597656 -17.101562 4.046875 -19.28125 C 4.828125 -22.96875 6.128906 -26.070312 7.953125 -28.59375 C 9.773438 -31.125 12.007812 -33.023438 14.65625 -34.296875 C 17.300781 -35.566406 20.269531 -36.203125 23.5625 -36.203125 C 26.375 -36.203125 28.816406 -35.695312 30.890625 -34.6875 C 32.972656 -33.675781 34.578125 -32.15625 35.703125 -30.125 C 36.835938 -28.09375 37.40625 -25.578125 37.40625 -22.578125 C 37.40625 -20.628906 37.164062 -18.570312 36.6875 -16.40625 C 35.90625 -12.707031 34.613281 -9.597656 32.8125 -7.078125 C 31.019531 -4.554688 28.804688 -2.660156 26.171875 -1.390625 C 23.535156 -0.117188 20.550781 0.515625 17.21875 0.515625 Z M 17.796875 -5.609375 C 20.804688 -5.609375 23.320312 -6.601562 25.34375 -8.59375 C 27.363281 -10.582031 28.820312 -13.664062 29.71875 -17.84375 C 30.050781 -19.457031 30.21875 -20.914062 30.21875 -22.21875 C 30.21875 -24.757812 29.59375 -26.707031 28.34375 -28.0625 C 27.101562 -29.425781 25.320312 -30.109375 23 -30.109375 C 19.988281 -30.109375 17.460938 -29.109375 15.421875 -27.109375 C 13.390625 -25.117188 11.925781 -22.03125 11.03125 -17.84375 C 10.6875 -16.269531 10.515625 -14.820312 10.515625 -13.5 C 10.515625 -10.945312 11.140625 -8.992188 12.390625 -7.640625 C 13.648438 -6.285156 15.453125 -5.609375 17.796875 -5.609375 Z M 17.796875 -5.609375 "/></g></g></g><g fill="#000000" fill-opacity="1"><g transform="translate(642.32954, 424.124999)"><g><path d="M 33.328125 -35.6875 L 32.078125 -29.765625 L 21.75 -29.765625 L 15.453125 0 L 8.421875 0 L 14.71875 -29.765625 L 4.4375 -29.765625 L 5.6875 -35.6875 Z M 33.328125 -35.6875 "/></g></g></g><g fill="#000000" fill-opacity="1"><g transform="translate(688.382784, 410.624999)"><g><path d="M 5 0.171875 C 4.28125 0.171875 3.632812 0.0703125 3.0625 -0.125 C 2.488281 -0.320312 2.007812 -0.578125 1.625 -0.890625 C 1.25 -1.210938 0.96875 -1.566406 0.78125 -1.953125 L 1.515625 -2.84375 L 1.71875 -2.84375 C 2.425781 -1.644531 3.519531 -1.046875 5 -1.046875 C 5.851562 -1.046875 6.488281 -1.222656 6.90625 -1.578125 C 7.332031 -1.941406 7.546875 -2.445312 7.546875 -3.09375 C 7.546875 -3.46875 7.472656 -3.785156 7.328125 -4.046875 C 7.191406 -4.304688 6.960938 -4.523438 6.640625 -4.703125 C 6.328125 -4.890625 5.898438 -5.050781 5.359375 -5.1875 L 4.015625 -5.515625 C 3.023438 -5.753906 2.289062 -6.132812 1.8125 -6.65625 C 1.34375 -7.1875 1.109375 -7.851562 1.109375 -8.65625 C 1.109375 -9.21875 1.253906 -9.722656 1.546875 -10.171875 C 1.835938 -10.617188 2.265625 -10.96875 2.828125 -11.21875 C 3.390625 -11.46875 4.0625 -11.59375 4.84375 -11.59375 C 5.707031 -11.59375 6.429688 -11.46875 7.015625 -11.21875 C 7.609375 -10.976562 8.082031 -10.617188 8.4375 -10.140625 L 7.78125 -9.25 L 7.59375 -9.25 C 7.257812 -9.65625 6.867188 -9.953125 6.421875 -10.140625 C 5.972656 -10.328125 5.445312 -10.421875 4.84375 -10.421875 C 4.050781 -10.421875 3.453125 -10.265625 3.046875 -9.953125 C 2.648438 -9.648438 2.453125 -9.226562 2.453125 -8.6875 C 2.453125 -8.164062 2.597656 -7.753906 2.890625 -7.453125 C 3.191406 -7.148438 3.691406 -6.914062 4.390625 -6.75 L 5.765625 -6.421875 C 6.867188 -6.160156 7.671875 -5.757812 8.171875 -5.21875 C 8.671875 -4.675781 8.921875 -3.988281 8.921875 -3.15625 C 8.921875 -2.507812 8.773438 -1.9375 8.484375 -1.4375 C 8.191406 -0.9375 7.75 -0.539062 7.15625 -0.25 C 6.570312 0.03125 5.851562 0.171875 5 0.171875 Z M 5 0.171875 "/></g></g></g><g fill="#000000" fill-opacity="1"><g transform="translate(698.169462, 410.624999)"><g><path d="M 10.28125 0 L 8.84375 0 L 7.796875 -3.140625 L 2.921875 -3.140625 L 1.859375 0 L 0.453125 0 L 4.4375 -11.421875 L 6.296875 -11.421875 Z M 5.265625 -10.046875 L 3.296875 -4.265625 L 7.40625 -4.265625 L 5.453125 -10.046875 Z M 5.265625 -10.046875 "/></g></g></g><g fill="#000000" fill-opacity="1"><g transform="translate(708.901216, 410.624999)"><g><path d="M 3.078125 -11.421875 L 3.078125 -1.109375 L 8.578125 -1.109375 L 8.578125 0 L 1.734375 0 L 1.734375 -11.421875 Z M 3.078125 -11.421875 "/></g></g></g><g fill="#000000" fill-opacity="1"><g transform="translate(717.953698, 410.624999)"><g><path d="M 3.078125 -5.390625 L 3.078125 -1.109375 L 8.890625 -1.109375 L 8.890625 0 L 1.734375 0 L 1.734375 -11.421875 L 8.765625 -11.421875 L 8.765625 -10.3125 L 3.078125 -10.3125 L 3.078125 -6.5 L 8.09375 -6.5 L 8.09375 -5.390625 Z M 3.078125 -5.390625 "/></g></g></g><g fill="#d9d9d9" fill-opacity="1"><g transform="translate(825.820277, 410.624999)"><g><path d="M 5 0.171875 C 4.28125 0.171875 3.632812 0.0703125 3.0625 -0.125 C 2.488281 -0.320312 2.007812 -0.578125 1.625 -0.890625 C 1.25 -1.210938 0.96875 -1.566406 0.78125 -1.953125 L 1.515625 -2.84375 L 1.71875 -2.84375 C 2.425781 -1.644531 3.519531 -1.046875 5 -1.046875 C 5.851562 -1.046875 6.488281 -1.222656 6.90625 -1.578125 C 7.332031 -1.941406 7.546875 -2.445312 7.546875 -3.09375 C 7.546875 -3.46875 7.472656 -3.785156 7.328125 -4.046875 C 7.191406 -4.304688 6.960938 -4.523438 6.640625 -4.703125 C 6.328125 -4.890625 5.898438 -5.050781 5.359375 -5.1875 L 4.015625 -5.515625 C 3.023438 -5.753906 2.289062 -6.132812 1.8125 -6.65625 C 1.34375 -7.1875 1.109375 -7.851562 1.109375 -8.65625 C 1.109375 -9.21875 1.253906 -9.722656 1.546875 -10.171875 C 1.835938 -10.617188 2.265625 -10.96875 2.828125 -11.21875 C 3.390625 -11.46875 4.0625 -11.59375 4.84375 -11.59375 C 5.707031 -11.59375 6.429688 -11.46875 7.015625 -11.21875 C 7.609375 -10.976562 8.082031 -10.617188 8.4375 -10.140625 L 7.78125 -9.25 L 7.59375 -9.25 C 7.257812 -9.65625 6.867188 -9.953125 6.421875 -10.140625 C 5.972656 -10.328125 5.445312 -10.421875 4.84375 -10.421875 C 4.050781 -10.421875 3.453125 -10.265625 3.046875 -9.953125 C 2.648438 -9.648438 2.453125 -9.226562 2.453125 -8.6875 C 2.453125 -8.164062 2.597656 -7.753906 2.890625 -7.453125 C 3.191406 -7.148438 3.691406 -6.914062 4.390625 -6.75 L 5.765625 -6.421875 C 6.867188 -6.160156 7.671875 -5.757812 8.171875 -5.21875 C 8.671875 -4.675781 8.921875 -3.988281 8.921875 -3.15625 C 8.921875 -2.507812 8.773438 -1.9375 8.484375 -1.4375 C 8.191406 -0.9375 7.75 -0.539062 7.15625 -0.25 C 6.570312 0.03125 5.851562 0.171875 5 0.171875 Z M 5 0.171875 "/></g></g></g><g fill="#d9d9d9" fill-opacity="1"><g transform="translate(835.606955, 410.624999)"><g><path d="M 9.015625 -6.796875 L 9.015625 -11.421875 L 10.34375 -11.421875 L 10.34375 0 L 9.015625 0 L 9.015625 -5.65625 L 3.078125 -5.65625 L 3.078125 0 L 1.734375 0 L 1.734375 -11.421875 L 3.078125 -11.421875 L 3.078125 -6.796875 Z M 9.015625 -6.796875 "/></g></g></g><g fill="#d9d9d9" fill-opacity="1"><g transform="translate(847.682131, 410.624999)"><g><path d="M 6.265625 0.171875 C 5.273438 0.171875 4.394531 -0.0390625 3.625 -0.46875 C 2.851562 -0.90625 2.242188 -1.5625 1.796875 -2.4375 C 1.359375 -3.3125 1.140625 -4.40625 1.140625 -5.71875 C 1.140625 -7.019531 1.359375 -8.109375 1.796875 -8.984375 C 2.242188 -9.867188 2.851562 -10.523438 3.625 -10.953125 C 4.394531 -11.378906 5.273438 -11.59375 6.265625 -11.59375 C 7.253906 -11.59375 8.132812 -11.378906 8.90625 -10.953125 C 9.675781 -10.523438 10.28125 -9.867188 10.71875 -8.984375 C 11.164062 -8.109375 11.390625 -7.019531 11.390625 -5.71875 C 11.390625 -4.40625 11.164062 -3.3125 10.71875 -2.4375 C 10.28125 -1.5625 9.675781 -0.90625 8.90625 -0.46875 C 8.132812 -0.0390625 7.253906 0.171875 6.265625 0.171875 Z M 6.265625 -1.078125 C 7.453125 -1.078125 8.363281 -1.445312 9 -2.1875 C 9.632812 -2.9375 9.953125 -4.113281 9.953125 -5.71875 C 9.953125 -7.320312 9.632812 -8.492188 9 -9.234375 C 8.363281 -9.972656 7.453125 -10.34375 6.265625 -10.34375 C 3.804688 -10.34375 2.578125 -8.800781 2.578125 -5.71875 C 2.578125 -2.625 3.804688 -1.078125 6.265625 -1.078125 Z M 6.265625 -1.078125 "/></g></g></g><g fill="#d9d9d9" fill-opacity="1"><g transform="translate(860.210321, 410.624999)"><g><path d="M 5.8125 -11.421875 C 6.601562 -11.421875 7.28125 -11.28125 7.84375 -11 C 8.40625 -10.71875 8.832031 -10.316406 9.125 -9.796875 C 9.414062 -9.273438 9.5625 -8.660156 9.5625 -7.953125 C 9.5625 -7.242188 9.414062 -6.628906 9.125 -6.109375 C 8.832031 -5.585938 8.40625 -5.179688 7.84375 -4.890625 C 7.28125 -4.609375 6.601562 -4.46875 5.8125 -4.46875 L 3.078125 -4.46875 L 3.078125 0 L 1.734375 0 L 1.734375 -11.421875 Z M 5.78125 -5.625 C 7.363281 -5.625 8.15625 -6.398438 8.15625 -7.953125 C 8.15625 -9.503906 7.363281 -10.28125 5.78125 -10.28125 L 3.078125 -10.28125 L 3.078125 -5.625 Z M 5.78125 -5.625 "/></g></g></g><g fill="#d9d9d9" fill-opacity="1"><g transform="translate(870.621846, 410.624999)"><g/></g></g><g fill="#d9d9d9" fill-opacity="1"><g transform="translate(874.542763, 410.624999)"><g><path d="M 3.046875 0 L 1.734375 0 L 1.734375 -11.421875 L 3.375 -11.421875 L 8.953125 -2.703125 L 9.140625 -2.734375 L 9.140625 -11.421875 L 10.453125 -11.421875 L 10.453125 0 L 9.046875 0 L 3.234375 -9.34375 L 3.046875 -9.3125 Z M 3.046875 0 "/></g></g></g><g fill="#d9d9d9" fill-opacity="1"><g transform="translate(886.719482, 410.624999)"><g><path d="M 6.265625 0.171875 C 5.273438 0.171875 4.394531 -0.0390625 3.625 -0.46875 C 2.851562 -0.90625 2.242188 -1.5625 1.796875 -2.4375 C 1.359375 -3.3125 1.140625 -4.40625 1.140625 -5.71875 C 1.140625 -7.019531 1.359375 -8.109375 1.796875 -8.984375 C 2.242188 -9.867188 2.851562 -10.523438 3.625 -10.953125 C 4.394531 -11.378906 5.273438 -11.59375 6.265625 -11.59375 C 7.253906 -11.59375 8.132812 -11.378906 8.90625 -10.953125 C 9.675781 -10.523438 10.28125 -9.867188 10.71875 -8.984375 C 11.164062 -8.109375 11.390625 -7.019531 11.390625 -5.71875 C 11.390625 -4.40625 11.164062 -3.3125 10.71875 -2.4375 C 10.28125 -1.5625 9.675781 -0.90625 8.90625 -0.46875 C 8.132812 -0.0390625 7.253906 0.171875 6.265625 0.171875 Z M 6.265625 -1.078125 C 7.453125 -1.078125 8.363281 -1.445312 9 -2.1875 C 9.632812 -2.9375 9.953125 -4.113281 9.953125 -5.71875 C 9.953125 -7.320312 9.632812 -8.492188 9 -9.234375 C 8.363281 -9.972656 7.453125 -10.34375 6.265625 -10.34375 C 3.804688 -10.34375 2.578125 -8.800781 2.578125 -5.71875 C 2.578125 -2.625 3.804688 -1.078125 6.265625 -1.078125 Z M 6.265625 -1.078125 "/></g></g></g><g fill="#d9d9d9" fill-opacity="1"><g transform="translate(899.247672, 410.624999)"><g><path d="M 5 0 L 3.234375 0 L 0.625 -11.421875 L 1.953125 -11.421875 L 4.09375 -1.984375 L 4.296875 -1.984375 L 6.859375 -11.421875 L 8.09375 -11.421875 L 10.65625 -1.984375 L 10.859375 -1.984375 L 13.015625 -11.421875 L 14.296875 -11.421875 L 11.6875 0 L 9.921875 0 L 7.546875 -8.65625 L 7.375 -8.65625 Z M 5 0 "/></g></g></g></svg>