<svg xmlns="http://www.w3.org/2000/svg" xmlns:xlink="http://www.w3.org/1999/xlink" width="1920" zoomAndPan="magnify" viewBox="0 0 1440 809.999993" height="1080" preserveAspectRatio="xMidYMid meet" version="1.0"><defs><g/></defs><path fill="#ebb450" d="M 378 273 L 1062 273 L 1062 537 L 378 537 Z M 378 273 " fill-opacity="1" fill-rule="nonzero"/><path stroke-linecap="butt" transform="matrix(0.75, 0, 0, 0.75, 401.999986, 439.499998)" fill="none" stroke-linejoin="miter" d="M 0.0000186691 2.000003 L 832.000061 2.000003 " stroke="#d9d9d9" stroke-width="4" stroke-opacity="1" stroke-miterlimit="4"/><path fill="#000000" d="M 591 468 L 801 468 L 801 513 L 591 513 Z M 591 468 " fill-opacity="1" fill-rule="nonzero"/><g fill="#000000" fill-opacity="1"><g transform="translate(533.226542, 312.196586)"><g><path d="M 5.328125 0 L 3.03125 0 L 3.03125 -20.015625 L 5.90625 -20.015625 L 15.671875 -4.71875 L 16.015625 -4.78125 L 16.015625 -20.015625 L 18.296875 -20.015625 L 18.296875 0 L 15.84375 0 L 5.671875 -16.359375 L 5.328125 -16.296875 Z M 5.328125 0 "/></g></g></g><g fill="#000000" fill-opacity="1"><g transform="translate(554.555867, 312.196586)"><g><path d="M 10.984375 0.28125 C 9.242188 0.28125 7.695312 -0.0859375 6.34375 -0.828125 C 5 -1.578125 3.9375 -2.71875 3.15625 -4.25 C 2.382812 -5.789062 2 -7.707031 2 -10 C 2 -12.289062 2.382812 -14.203125 3.15625 -15.734375 C 3.9375 -17.273438 5 -18.421875 6.34375 -19.171875 C 7.695312 -19.921875 9.242188 -20.296875 10.984375 -20.296875 C 12.710938 -20.296875 14.25 -19.921875 15.59375 -19.171875 C 16.945312 -18.421875 18.007812 -17.273438 18.78125 -15.734375 C 19.5625 -14.203125 19.953125 -12.289062 19.953125 -10 C 19.953125 -7.707031 19.5625 -5.789062 18.78125 -4.25 C 18.007812 -2.71875 16.945312 -1.578125 15.59375 -0.828125 C 14.25 -0.0859375 12.710938 0.28125 10.984375 0.28125 Z M 10.984375 -1.890625 C 13.054688 -1.890625 14.648438 -2.539062 15.765625 -3.84375 C 16.878906 -5.144531 17.4375 -7.195312 17.4375 -10 C 17.4375 -12.8125 16.878906 -14.867188 15.765625 -16.171875 C 14.648438 -17.472656 13.054688 -18.125 10.984375 -18.125 C 6.671875 -18.125 4.515625 -15.414062 4.515625 -10 C 4.515625 -4.59375 6.671875 -1.890625 10.984375 -1.890625 Z M 10.984375 -1.890625 "/></g></g></g><g fill="#000000" fill-opacity="1"><g transform="translate(576.50085, 312.196586)"><g><path d="M 15.609375 -20.015625 L 15.609375 -18.015625 L 9.34375 -18.015625 L 9.34375 0 L 7.015625 0 L 7.015625 -18.015625 L 0.734375 -18.015625 L 0.734375 -20.015625 Z M 15.609375 -20.015625 "/></g></g></g><g fill="#000000" fill-opacity="1"><g transform="translate(592.836455, 312.196586)"><g/></g></g><g fill="#000000" fill-opacity="1"><g transform="translate(599.704523, 312.196586)"><g><path d="M 3.03125 0 L 3.03125 -20.015625 L 10.296875 -20.015625 C 11.640625 -20.015625 12.765625 -19.789062 13.671875 -19.34375 C 14.585938 -18.90625 15.269531 -18.28125 15.71875 -17.46875 C 16.175781 -16.664062 16.40625 -15.710938 16.40625 -14.609375 C 16.40625 -13.367188 16.09375 -12.34375 15.46875 -11.53125 C 14.851562 -10.71875 13.890625 -10.113281 12.578125 -9.71875 L 12.578125 -9.4375 C 13.222656 -9.175781 13.75 -8.769531 14.15625 -8.21875 C 14.570312 -7.675781 14.953125 -6.863281 15.296875 -5.78125 L 17.15625 0 L 14.734375 0 L 12.734375 -6.125 C 12.492188 -6.84375 12.21875 -7.40625 11.90625 -7.8125 C 11.59375 -8.226562 11.195312 -8.523438 10.71875 -8.703125 C 10.25 -8.890625 9.648438 -8.984375 8.921875 -8.984375 L 5.375 -8.984375 L 5.375 0 Z M 10.234375 -10.984375 C 11.484375 -10.984375 12.414062 -11.269531 13.03125 -11.84375 C 13.644531 -12.425781 13.953125 -13.3125 13.953125 -14.5 C 13.953125 -15.6875 13.644531 -16.566406 13.03125 -17.140625 C 12.414062 -17.722656 11.484375 -18.015625 10.234375 -18.015625 L 5.375 -18.015625 L 5.375 -10.984375 Z M 10.234375 -10.984375 "/></g></g></g><g fill="#000000" fill-opacity="1"><g transform="translate(618.229154, 312.196586)"><g><path d="M 5.375 -9.4375 L 5.375 -1.9375 L 15.578125 -1.9375 L 15.578125 0 L 3.03125 0 L 3.03125 -20.015625 L 15.359375 -20.015625 L 15.359375 -18.0625 L 5.375 -18.0625 L 5.375 -11.375 L 14.1875 -11.375 L 14.1875 -9.4375 Z M 5.375 -9.4375 "/></g></g></g><g fill="#000000" fill-opacity="1"><g transform="translate(635.125702, 312.196586)"><g><path d="M 18.015625 0 L 15.5 0 L 13.640625 -5.484375 L 5.125 -5.484375 L 3.25 0 L 0.796875 0 L 7.78125 -20.015625 L 11.03125 -20.015625 Z M 9.21875 -17.59375 L 5.78125 -7.453125 L 12.96875 -7.453125 L 9.546875 -17.59375 Z M 9.21875 -17.59375 "/></g></g></g><g fill="#000000" fill-opacity="1"><g transform="translate(653.923961, 312.196586)"><g><path d="M 9.5 -20.015625 C 11.519531 -20.015625 13.257812 -19.648438 14.71875 -18.921875 C 16.175781 -18.191406 17.296875 -17.082031 18.078125 -15.59375 C 18.867188 -14.113281 19.265625 -12.25 19.265625 -10 C 19.265625 -7.757812 18.867188 -5.894531 18.078125 -4.40625 C 17.296875 -2.914062 16.175781 -1.804688 14.71875 -1.078125 C 13.257812 -0.359375 11.519531 0 9.5 0 L 3.03125 0 L 3.03125 -20.015625 Z M 9.265625 -2 C 10.929688 -2 12.3125 -2.257812 13.40625 -2.78125 C 14.507812 -3.300781 15.34375 -4.148438 15.90625 -5.328125 C 16.46875 -6.503906 16.75 -8.0625 16.75 -10 C 16.75 -11.957031 16.46875 -13.519531 15.90625 -14.6875 C 15.34375 -15.863281 14.507812 -16.710938 13.40625 -17.234375 C 12.3125 -17.753906 10.929688 -18.015625 9.265625 -18.015625 L 5.375 -18.015625 L 5.375 -2 Z M 9.265625 -2 "/></g></g></g><g fill="#000000" fill-opacity="1"><g transform="translate(675.184873, 312.196586)"><g><path d="M 9.765625 0 L 7.4375 0 L 7.4375 -7.859375 L 0.515625 -20.015625 L 3.09375 -20.015625 L 8.484375 -10.640625 L 8.828125 -10.640625 L 14.1875 -20.015625 L 16.703125 -20.015625 L 9.765625 -7.859375 Z M 9.765625 0 "/></g></g></g><g fill="#000000" fill-opacity="1"><g transform="translate(692.382413, 312.196586)"><g/></g></g><g fill="#000000" fill-opacity="1"><g transform="translate(699.250481, 312.196586)"><g><path d="M 15.609375 -20.015625 L 15.609375 -18.015625 L 9.34375 -18.015625 L 9.34375 0 L 7.015625 0 L 7.015625 -18.015625 L 0.734375 -18.015625 L 0.734375 -20.015625 Z M 15.609375 -20.015625 "/></g></g></g><g fill="#000000" fill-opacity="1"><g transform="translate(715.586086, 312.196586)"><g><path d="M 10.984375 0.28125 C 9.242188 0.28125 7.695312 -0.0859375 6.34375 -0.828125 C 5 -1.578125 3.9375 -2.71875 3.15625 -4.25 C 2.382812 -5.789062 2 -7.707031 2 -10 C 2 -12.289062 2.382812 -14.203125 3.15625 -15.734375 C 3.9375 -17.273438 5 -18.421875 6.34375 -19.171875 C 7.695312 -19.921875 9.242188 -20.296875 10.984375 -20.296875 C 12.710938 -20.296875 14.25 -19.921875 15.59375 -19.171875 C 16.945312 -18.421875 18.007812 -17.273438 18.78125 -15.734375 C 19.5625 -14.203125 19.953125 -12.289062 19.953125 -10 C 19.953125 -7.707031 19.5625 -5.789062 18.78125 -4.25 C 18.007812 -2.71875 16.945312 -1.578125 15.59375 -0.828125 C 14.25 -0.0859375 12.710938 0.28125 10.984375 0.28125 Z M 10.984375 -1.890625 C 13.054688 -1.890625 14.648438 -2.539062 15.765625 -3.84375 C 16.878906 -5.144531 17.4375 -7.195312 17.4375 -10 C 17.4375 -12.8125 16.878906 -14.867188 15.765625 -16.171875 C 14.648438 -17.472656 13.054688 -18.125 10.984375 -18.125 C 6.671875 -18.125 4.515625 -15.414062 4.515625 -10 C 4.515625 -4.59375 6.671875 -1.890625 10.984375 -1.890625 Z M 10.984375 -1.890625 "/></g></g></g><g fill="#000000" fill-opacity="1"><g transform="translate(737.531081, 312.196586)"><g/></g></g><g fill="#000000" fill-opacity="1"><g transform="translate(744.399138, 312.196586)"><g><path d="M 3.03125 0 L 3.03125 -20.015625 L 10.609375 -20.015625 C 11.835938 -20.015625 12.878906 -19.816406 13.734375 -19.421875 C 14.597656 -19.023438 15.242188 -18.460938 15.671875 -17.734375 C 16.109375 -17.015625 16.328125 -16.15625 16.328125 -15.15625 C 16.328125 -14.28125 16.09375 -13.492188 15.625 -12.796875 C 15.15625 -12.097656 14.484375 -11.550781 13.609375 -11.15625 L 13.609375 -10.875 C 14.941406 -10.539062 15.953125 -9.941406 16.640625 -9.078125 C 17.328125 -8.210938 17.671875 -7.117188 17.671875 -5.796875 C 17.671875 -3.941406 17.125 -2.507812 16.03125 -1.5 C 14.945312 -0.5 13.332031 0 11.1875 0 Z M 10.5 -11.609375 C 11.601562 -11.609375 12.457031 -11.894531 13.0625 -12.46875 C 13.675781 -13.050781 13.984375 -13.847656 13.984375 -14.859375 C 13.984375 -15.929688 13.6875 -16.734375 13.09375 -17.265625 C 12.507812 -17.796875 11.644531 -18.0625 10.5 -18.0625 L 5.375 -18.0625 L 5.375 -11.609375 Z M 11 -1.9375 C 13.851562 -1.9375 15.28125 -3.222656 15.28125 -5.796875 C 15.28125 -8.367188 13.851562 -9.65625 11 -9.65625 L 5.375 -9.65625 L 5.375 -1.9375 Z M 11 -1.9375 "/></g></g></g><g fill="#000000" fill-opacity="1"><g transform="translate(763.648878, 312.196586)"><g><path d="M 10.3125 0.28125 C 7.863281 0.28125 6.007812 -0.335938 4.75 -1.578125 C 3.488281 -2.828125 2.859375 -4.675781 2.859375 -7.125 L 2.859375 -20.015625 L 5.203125 -20.015625 L 5.203125 -7.140625 C 5.203125 -5.390625 5.625 -4.078125 6.46875 -3.203125 C 7.3125 -2.328125 8.59375 -1.890625 10.3125 -1.890625 C 13.726562 -1.890625 15.4375 -3.640625 15.4375 -7.140625 L 15.4375 -20.015625 L 17.78125 -20.015625 L 17.78125 -7.125 C 17.78125 -4.675781 17.148438 -2.828125 15.890625 -1.578125 C 14.628906 -0.335938 12.769531 0.28125 10.3125 0.28125 Z M 10.3125 0.28125 "/></g></g></g><g fill="#000000" fill-opacity="1"><g transform="translate(784.266782, 312.196586)"><g><path d="M 9.765625 0 L 7.4375 0 L 7.4375 -7.859375 L 0.515625 -20.015625 L 3.09375 -20.015625 L 8.484375 -10.640625 L 8.828125 -10.640625 L 14.1875 -20.015625 L 16.703125 -20.015625 L 9.765625 -7.859375 Z M 9.765625 0 "/></g></g></g><g fill="#000000" fill-opacity="1"><g transform="translate(801.464321, 312.196586)"><g/></g></g><g fill="#000000" fill-opacity="1"><g transform="translate(808.332378, 312.196586)"><g><path d="M 9.765625 0 L 7.4375 0 L 7.4375 -7.859375 L 0.515625 -20.015625 L 3.09375 -20.015625 L 8.484375 -10.640625 L 8.828125 -10.640625 L 14.1875 -20.015625 L 16.703125 -20.015625 L 9.765625 -7.859375 Z M 9.765625 0 "/></g></g></g><g fill="#000000" fill-opacity="1"><g transform="translate(825.529918, 312.196586)"><g><path d="M 5.375 -9.4375 L 5.375 -1.9375 L 15.578125 -1.9375 L 15.578125 0 L 3.03125 0 L 3.03125 -20.015625 L 15.359375 -20.015625 L 15.359375 -18.0625 L 5.375 -18.0625 L 5.375 -11.375 L 14.1875 -11.375 L 14.1875 -9.4375 Z M 5.375 -9.4375 "/></g></g></g><g fill="#000000" fill-opacity="1"><g transform="translate(842.426478, 312.196586)"><g><path d="M 15.609375 -20.015625 L 15.609375 -18.015625 L 9.34375 -18.015625 L 9.34375 0 L 7.015625 0 L 7.015625 -18.015625 L 0.734375 -18.015625 L 0.734375 -20.015625 Z M 15.609375 -20.015625 "/></g></g></g><g fill="#000000" fill-opacity="1"><g transform="translate(536.074198, 392.949903)"><g><path d="M 11.46875 0 L 4.640625 0 L 4.640625 -35.6875 L 12.71875 -35.6875 L 27.046875 -12.703125 L 27.6875 -12.796875 L 27.6875 -35.6875 L 34.46875 -35.6875 L 34.46875 0 L 27.25 0 L 12.078125 -24.5625 L 11.46875 -24.46875 Z M 11.46875 0 "/></g></g></g><g fill="#000000" fill-opacity="1"><g transform="translate(575.203823, 392.949903)"><g><path d="M 19.453125 0.515625 C 16.179688 0.515625 13.296875 -0.148438 10.796875 -1.484375 C 8.304688 -2.816406 6.351562 -4.851562 4.9375 -7.59375 C 3.519531 -10.34375 2.8125 -13.757812 2.8125 -17.84375 C 2.8125 -21.925781 3.519531 -25.335938 4.9375 -28.078125 C 6.351562 -30.828125 8.304688 -32.867188 10.796875 -34.203125 C 13.296875 -35.535156 16.179688 -36.203125 19.453125 -36.203125 C 22.722656 -36.203125 25.601562 -35.539062 28.09375 -34.21875 C 30.59375 -32.894531 32.546875 -30.851562 33.953125 -28.09375 C 35.359375 -25.34375 36.0625 -21.925781 36.0625 -17.84375 C 36.0625 -13.757812 35.359375 -10.34375 33.953125 -7.59375 C 32.546875 -4.84375 30.59375 -2.800781 28.09375 -1.46875 C 25.601562 -0.144531 22.722656 0.515625 19.453125 0.515625 Z M 19.453125 -5.609375 C 22.484375 -5.609375 24.796875 -6.582031 26.390625 -8.53125 C 27.984375 -10.476562 28.78125 -13.582031 28.78125 -17.84375 C 28.78125 -22.113281 27.984375 -25.222656 26.390625 -27.171875 C 24.796875 -29.128906 22.484375 -30.109375 19.453125 -30.109375 C 16.410156 -30.109375 14.085938 -29.128906 12.484375 -27.171875 C 10.878906 -25.222656 10.078125 -22.113281 10.078125 -17.84375 C 10.078125 -13.582031 10.878906 -10.476562 12.484375 -8.53125 C 14.085938 -6.582031 16.410156 -5.609375 19.453125 -5.609375 Z M 19.453125 -5.609375 "/></g></g></g><g fill="#000000" fill-opacity="1"><g transform="translate(614.089346, 392.949903)"><g/></g></g><g fill="#000000" fill-opacity="1"><g transform="translate(625.879495, 392.949903)"><g><path d="M 17.046875 0 L 9.15625 0 L 0.984375 -35.6875 L 8.015625 -35.6875 L 13.40625 -10.59375 L 14.015625 -10.59375 L 20.40625 -35.6875 L 26.4375 -35.6875 L 32.953125 -10.59375 L 33.5625 -10.59375 L 38.984375 -35.6875 L 45.78125 -35.6875 L 37.625 0 L 29.71875 0 L 23.46875 -23.015625 L 22.953125 -23.015625 Z M 17.046875 0 "/></g></g></g><g fill="#000000" fill-opacity="1"><g transform="translate(672.600706, 392.949903)"><g><path d="M 19.453125 0.515625 C 16.179688 0.515625 13.296875 -0.148438 10.796875 -1.484375 C 8.304688 -2.816406 6.351562 -4.851562 4.9375 -7.59375 C 3.519531 -10.34375 2.8125 -13.757812 2.8125 -17.84375 C 2.8125 -21.925781 3.519531 -25.335938 4.9375 -28.078125 C 6.351562 -30.828125 8.304688 -32.867188 10.796875 -34.203125 C 13.296875 -35.535156 16.179688 -36.203125 19.453125 -36.203125 C 22.722656 -36.203125 25.601562 -35.539062 28.09375 -34.21875 C 30.59375 -32.894531 32.546875 -30.851562 33.953125 -28.09375 C 35.359375 -25.34375 36.0625 -21.925781 36.0625 -17.84375 C 36.0625 -13.757812 35.359375 -10.34375 33.953125 -7.59375 C 32.546875 -4.84375 30.59375 -2.800781 28.09375 -1.46875 C 25.601562 -0.144531 22.722656 0.515625 19.453125 0.515625 Z M 19.453125 -5.609375 C 22.484375 -5.609375 24.796875 -6.582031 26.390625 -8.53125 C 27.984375 -10.476562 28.78125 -13.582031 28.78125 -17.84375 C 28.78125 -22.113281 27.984375 -25.222656 26.390625 -27.171875 C 24.796875 -29.128906 22.484375 -30.109375 19.453125 -30.109375 C 16.410156 -30.109375 14.085938 -29.128906 12.484375 -27.171875 C 10.878906 -25.222656 10.078125 -22.113281 10.078125 -17.84375 C 10.078125 -13.582031 10.878906 -10.476562 12.484375 -8.53125 C 14.085938 -6.582031 16.410156 -5.609375 19.453125 -5.609375 Z M 19.453125 -5.609375 "/></g></g></g><g fill="#000000" fill-opacity="1"><g transform="translate(711.486229, 392.949903)"><g><path d="M 4.640625 0 L 4.640625 -35.6875 L 18.96875 -35.6875 C 22.664062 -35.6875 25.453125 -34.835938 27.328125 -33.140625 C 29.210938 -31.441406 30.15625 -29.09375 30.15625 -26.09375 C 30.15625 -23.9375 29.601562 -22.164062 28.5 -20.78125 C 27.40625 -19.394531 25.765625 -18.335938 23.578125 -17.609375 L 23.578125 -17.09375 C 24.703125 -16.601562 25.609375 -15.878906 26.296875 -14.921875 C 26.992188 -13.960938 27.648438 -12.535156 28.265625 -10.640625 L 31.84375 0 L 24.578125 0 L 21.09375 -10.671875 C 20.738281 -11.742188 20.335938 -12.578125 19.890625 -13.171875 C 19.441406 -13.765625 18.867188 -14.195312 18.171875 -14.46875 C 17.484375 -14.738281 16.585938 -14.875 15.484375 -14.875 L 11.6875 -14.875 L 11.6875 0 Z M 18.109375 -20.453125 C 21.535156 -20.453125 23.25 -22.050781 23.25 -25.25 C 23.25 -28.488281 21.535156 -30.109375 18.109375 -30.109375 L 11.6875 -30.109375 L 11.6875 -20.453125 Z M 18.109375 -20.453125 "/></g></g></g><g fill="#000000" fill-opacity="1"><g transform="translate(744.855025, 392.949903)"><g><path d="M 4.640625 0 L 4.640625 -35.6875 L 18.96875 -35.6875 C 22.664062 -35.6875 25.453125 -34.835938 27.328125 -33.140625 C 29.210938 -31.441406 30.15625 -29.09375 30.15625 -26.09375 C 30.15625 -23.9375 29.601562 -22.164062 28.5 -20.78125 C 27.40625 -19.394531 25.765625 -18.335938 23.578125 -17.609375 L 23.578125 -17.09375 C 24.703125 -16.601562 25.609375 -15.878906 26.296875 -14.921875 C 26.992188 -13.960938 27.648438 -12.535156 28.265625 -10.640625 L 31.84375 0 L 24.578125 0 L 21.09375 -10.671875 C 20.738281 -11.742188 20.335938 -12.578125 19.890625 -13.171875 C 19.441406 -13.765625 18.867188 -14.195312 18.171875 -14.46875 C 17.484375 -14.738281 16.585938 -14.875 15.484375 -14.875 L 11.6875 -14.875 L 11.6875 0 Z M 18.109375 -20.453125 C 21.535156 -20.453125 23.25 -22.050781 23.25 -25.25 C 23.25 -28.488281 21.535156 -30.109375 18.109375 -30.109375 L 11.6875 -30.109375 L 11.6875 -20.453125 Z M 18.109375 -20.453125 "/></g></g></g><g fill="#000000" fill-opacity="1"><g transform="translate(778.223843, 392.949903)"><g><path d="M 11.6875 0 L 4.640625 0 L 4.640625 -35.6875 L 11.6875 -35.6875 Z M 11.6875 0 "/></g></g></g><g fill="#000000" fill-opacity="1"><g transform="translate(794.578708, 392.949903)"><g><path d="M 11.6875 -15.671875 L 11.6875 -5.90625 L 28.734375 -5.90625 L 28.734375 0 L 4.640625 0 L 4.640625 -35.6875 L 28.34375 -35.6875 L 28.34375 -29.78125 L 11.6875 -29.78125 L 11.6875 -21.4375 L 26.25 -21.4375 L 26.25 -15.671875 Z M 11.6875 -15.671875 "/></g></g></g><g fill="#000000" fill-opacity="1"><g transform="translate(825.2624, 392.949903)"><g><path d="M 15.828125 0.515625 C 13.347656 0.515625 11.144531 0.210938 9.21875 -0.390625 C 7.289062 -1.003906 5.679688 -1.804688 4.390625 -2.796875 C 3.109375 -3.796875 2.125 -4.890625 1.4375 -6.078125 L 5.328125 -10.8125 L 5.9375 -10.8125 C 7.007812 -9.21875 8.367188 -7.945312 10.015625 -7 C 11.671875 -6.0625 13.609375 -5.59375 15.828125 -5.59375 C 17.710938 -5.59375 19.132812 -5.988281 20.09375 -6.78125 C 21.050781 -7.582031 21.53125 -8.679688 21.53125 -10.078125 C 21.53125 -10.929688 21.375 -11.640625 21.0625 -12.203125 C 20.757812 -12.773438 20.25 -13.265625 19.53125 -13.671875 C 18.8125 -14.078125 17.84375 -14.425781 16.625 -14.71875 L 12.03125 -15.765625 C 8.832031 -16.503906 6.445312 -17.722656 4.875 -19.421875 C 3.300781 -21.117188 2.515625 -23.328125 2.515625 -26.046875 C 2.515625 -28.066406 3.019531 -29.84375 4.03125 -31.375 C 5.039062 -32.90625 6.507812 -34.09375 8.4375 -34.9375 C 10.363281 -35.78125 12.671875 -36.203125 15.359375 -36.203125 C 18.109375 -36.203125 20.460938 -35.835938 22.421875 -35.109375 C 24.378906 -34.390625 26.035156 -33.28125 27.390625 -31.78125 L 23.90625 -27 L 23.296875 -27 C 22.285156 -28.0625 21.128906 -28.851562 19.828125 -29.375 C 18.523438 -29.90625 17.035156 -30.171875 15.359375 -30.171875 C 13.421875 -30.171875 11.945312 -29.828125 10.9375 -29.140625 C 9.925781 -28.460938 9.421875 -27.519531 9.421875 -26.3125 C 9.421875 -25.195312 9.773438 -24.300781 10.484375 -23.625 C 11.191406 -22.957031 12.414062 -22.441406 14.15625 -22.078125 L 18.84375 -21.09375 C 22.3125 -20.363281 24.828125 -19.125 26.390625 -17.375 C 27.953125 -15.625 28.734375 -13.335938 28.734375 -10.515625 C 28.734375 -8.285156 28.253906 -6.34375 27.296875 -4.6875 C 26.335938 -3.039062 24.890625 -1.757812 22.953125 -0.84375 C 21.015625 0.0625 18.640625 0.515625 15.828125 0.515625 Z M 15.828125 0.515625 "/></g></g></g><g fill="#d9d9d9" fill-opacity="1"><g transform="translate(625.318343, 496.124995)"><g><path d="M 10.96875 0 L 8.59375 0 L 7.734375 -2.640625 L 3.359375 -2.640625 L 2.5 0 L 0.171875 0 L 4.125 -11.421875 L 7.015625 -11.421875 Z M 5.4375 -9.046875 L 3.96875 -4.53125 L 7.109375 -4.53125 L 5.625 -9.046875 Z M 5.4375 -9.046875 "/></g></g></g><g fill="#d9d9d9" fill-opacity="1"><g transform="translate(636.448442, 496.124995)"><g><path d="M 5.59375 -11.421875 C 7.445312 -11.421875 8.863281 -10.941406 9.84375 -9.984375 C 10.820312 -9.023438 11.3125 -7.601562 11.3125 -5.71875 C 11.3125 -3.832031 10.820312 -2.40625 9.84375 -1.4375 C 8.863281 -0.476562 7.445312 0 5.59375 0 L 1.484375 0 L 1.484375 -11.421875 Z M 5.46875 -1.90625 C 6.644531 -1.90625 7.523438 -2.203125 8.109375 -2.796875 C 8.691406 -3.398438 8.984375 -4.375 8.984375 -5.71875 C 8.984375 -7.050781 8.691406 -8.019531 8.109375 -8.625 C 7.523438 -9.226562 6.644531 -9.53125 5.46875 -9.53125 L 3.75 -9.53125 L 3.75 -1.90625 Z M 5.46875 -1.90625 "/></g></g></g><g fill="#d9d9d9" fill-opacity="1"><g transform="translate(648.656404, 496.124995)"><g><path d="M 5.59375 -11.421875 C 7.445312 -11.421875 8.863281 -10.941406 9.84375 -9.984375 C 10.820312 -9.023438 11.3125 -7.601562 11.3125 -5.71875 C 11.3125 -3.832031 10.820312 -2.40625 9.84375 -1.4375 C 8.863281 -0.476562 7.445312 0 5.59375 0 L 1.484375 0 L 1.484375 -11.421875 Z M 5.46875 -1.90625 C 6.644531 -1.90625 7.523438 -2.203125 8.109375 -2.796875 C 8.691406 -3.398438 8.984375 -4.375 8.984375 -5.71875 C 8.984375 -7.050781 8.691406 -8.019531 8.109375 -8.625 C 7.523438 -9.226562 6.644531 -9.53125 5.46875 -9.53125 L 3.75 -9.53125 L 3.75 -1.90625 Z M 5.46875 -1.90625 "/></g></g></g><g fill="#d9d9d9" fill-opacity="1"><g transform="translate(660.864365, 496.124995)"><g/></g></g><g fill="#d9d9d9" fill-opacity="1"><g transform="translate(664.636887, 496.124995)"><g><path d="M 9.15625 -11.421875 L 9.15625 -9.53125 L 5.859375 -9.53125 L 5.859375 0 L 3.609375 0 L 3.609375 -9.53125 L 0.3125 -9.53125 L 0.3125 -11.421875 Z M 9.15625 -11.421875 "/></g></g></g><g fill="#d9d9d9" fill-opacity="1"><g transform="translate(674.103325, 496.124995)"><g><path d="M 6.234375 0.171875 C 5.179688 0.171875 4.253906 -0.0390625 3.453125 -0.46875 C 2.660156 -0.90625 2.035156 -1.5625 1.578125 -2.4375 C 1.128906 -3.3125 0.90625 -4.40625 0.90625 -5.71875 C 0.90625 -7.019531 1.128906 -8.109375 1.578125 -8.984375 C 2.035156 -9.867188 2.660156 -10.523438 3.453125 -10.953125 C 4.253906 -11.378906 5.179688 -11.59375 6.234375 -11.59375 C 7.273438 -11.59375 8.191406 -11.378906 8.984375 -10.953125 C 9.785156 -10.523438 10.410156 -9.867188 10.859375 -8.984375 C 11.316406 -8.109375 11.546875 -7.019531 11.546875 -5.71875 C 11.546875 -4.40625 11.316406 -3.304688 10.859375 -2.421875 C 10.410156 -1.546875 9.785156 -0.894531 8.984375 -0.46875 C 8.191406 -0.0390625 7.273438 0.171875 6.234375 0.171875 Z M 6.234375 -1.796875 C 7.203125 -1.796875 7.941406 -2.109375 8.453125 -2.734375 C 8.960938 -3.359375 9.21875 -4.351562 9.21875 -5.71875 C 9.21875 -7.082031 8.960938 -8.078125 8.453125 -8.703125 C 7.941406 -9.328125 7.203125 -9.640625 6.234375 -9.640625 C 5.253906 -9.640625 4.507812 -9.328125 4 -8.703125 C 3.488281 -8.078125 3.234375 -7.082031 3.234375 -5.71875 C 3.234375 -4.351562 3.488281 -3.359375 4 -2.734375 C 4.507812 -2.109375 5.253906 -1.796875 6.234375 -1.796875 Z M 6.234375 -1.796875 "/></g></g></g><g fill="#d9d9d9" fill-opacity="1"><g transform="translate(686.545604, 496.124995)"><g/></g></g><g fill="#d9d9d9" fill-opacity="1"><g transform="translate(690.318126, 496.124995)"><g><path d="M 5.453125 0 L 2.9375 0 L 0.3125 -11.421875 L 2.5625 -11.421875 L 4.296875 -3.390625 L 4.484375 -3.390625 L 6.53125 -11.421875 L 8.46875 -11.421875 L 10.546875 -3.390625 L 10.75 -3.390625 L 12.484375 -11.421875 L 14.65625 -11.421875 L 12.046875 0 L 9.515625 0 L 7.515625 -7.375 L 7.34375 -7.375 Z M 5.453125 0 "/></g></g></g><g fill="#d9d9d9" fill-opacity="1"><g transform="translate(705.267599, 496.124995)"><g><path d="M 3.75 0 L 1.484375 0 L 1.484375 -11.421875 L 3.75 -11.421875 Z M 3.75 0 "/></g></g></g><g fill="#d9d9d9" fill-opacity="1"><g transform="translate(710.500696, 496.124995)"><g><path d="M 5.0625 0.171875 C 4.269531 0.171875 3.566406 0.0703125 2.953125 -0.125 C 2.335938 -0.320312 1.820312 -0.578125 1.40625 -0.890625 C 1 -1.210938 0.6875 -1.566406 0.46875 -1.953125 L 1.703125 -3.46875 L 1.90625 -3.46875 C 2.25 -2.957031 2.679688 -2.550781 3.203125 -2.25 C 3.734375 -1.945312 4.351562 -1.796875 5.0625 -1.796875 C 5.664062 -1.796875 6.117188 -1.921875 6.421875 -2.171875 C 6.734375 -2.429688 6.890625 -2.785156 6.890625 -3.234375 C 6.890625 -3.503906 6.835938 -3.726562 6.734375 -3.90625 C 6.640625 -4.09375 6.476562 -4.25 6.25 -4.375 C 6.019531 -4.507812 5.710938 -4.625 5.328125 -4.71875 L 3.859375 -5.046875 C 2.828125 -5.285156 2.0625 -5.675781 1.5625 -6.21875 C 1.0625 -6.757812 0.8125 -7.46875 0.8125 -8.34375 C 0.8125 -8.988281 0.972656 -9.554688 1.296875 -10.046875 C 1.617188 -10.535156 2.085938 -10.914062 2.703125 -11.1875 C 3.316406 -11.457031 4.054688 -11.59375 4.921875 -11.59375 C 5.796875 -11.59375 6.546875 -11.472656 7.171875 -11.234375 C 7.804688 -11.003906 8.335938 -10.648438 8.765625 -10.171875 L 7.65625 -8.640625 L 7.453125 -8.640625 C 7.128906 -8.984375 6.757812 -9.238281 6.34375 -9.40625 C 5.925781 -9.570312 5.453125 -9.65625 4.921875 -9.65625 C 4.296875 -9.65625 3.820312 -9.546875 3.5 -9.328125 C 3.175781 -9.109375 3.015625 -8.804688 3.015625 -8.421875 C 3.015625 -8.066406 3.128906 -7.78125 3.359375 -7.5625 C 3.585938 -7.351562 3.976562 -7.1875 4.53125 -7.0625 L 6.03125 -6.75 C 7.144531 -6.519531 7.953125 -6.125 8.453125 -5.5625 C 8.953125 -5 9.203125 -4.269531 9.203125 -3.375 C 9.203125 -2.65625 9.046875 -2.03125 8.734375 -1.5 C 8.429688 -0.976562 7.96875 -0.566406 7.34375 -0.265625 C 6.726562 0.0234375 5.96875 0.171875 5.0625 0.171875 Z M 5.0625 0.171875 "/></g></g></g><g fill="#d9d9d9" fill-opacity="1"><g transform="translate(720.3108, 496.124995)"><g><path d="M 8.859375 -7.125 L 8.859375 -11.421875 L 11.109375 -11.421875 L 11.109375 0 L 8.859375 0 L 8.859375 -5.203125 L 3.75 -5.203125 L 3.75 0 L 1.484375 0 L 1.484375 -11.421875 L 3.75 -11.421875 L 3.75 -7.125 Z M 8.859375 -7.125 "/></g></g></g><g fill="#d9d9d9" fill-opacity="1"><g transform="translate(732.909291, 496.124995)"><g><path d="M 3.75 -11.421875 L 3.75 -1.890625 L 8.875 -1.890625 L 8.875 0 L 1.484375 0 L 1.484375 -11.421875 Z M 3.75 -11.421875 "/></g></g></g><g fill="#d9d9d9" fill-opacity="1"><g transform="translate(742.157032, 496.124995)"><g><path d="M 3.75 0 L 1.484375 0 L 1.484375 -11.421875 L 3.75 -11.421875 Z M 3.75 0 "/></g></g></g><g fill="#d9d9d9" fill-opacity="1"><g transform="translate(747.390129, 496.124995)"><g><path d="M 5.0625 0.171875 C 4.269531 0.171875 3.566406 0.0703125 2.953125 -0.125 C 2.335938 -0.320312 1.820312 -0.578125 1.40625 -0.890625 C 1 -1.210938 0.6875 -1.566406 0.46875 -1.953125 L 1.703125 -3.46875 L 1.90625 -3.46875 C 2.25 -2.957031 2.679688 -2.550781 3.203125 -2.25 C 3.734375 -1.945312 4.351562 -1.796875 5.0625 -1.796875 C 5.664062 -1.796875 6.117188 -1.921875 6.421875 -2.171875 C 6.734375 -2.429688 6.890625 -2.785156 6.890625 -3.234375 C 6.890625 -3.503906 6.835938 -3.726562 6.734375 -3.90625 C 6.640625 -4.09375 6.476562 -4.25 6.25 -4.375 C 6.019531 -4.507812 5.710938 -4.625 5.328125 -4.71875 L 3.859375 -5.046875 C 2.828125 -5.285156 2.0625 -5.675781 1.5625 -6.21875 C 1.0625 -6.757812 0.8125 -7.46875 0.8125 -8.34375 C 0.8125 -8.988281 0.972656 -9.554688 1.296875 -10.046875 C 1.617188 -10.535156 2.085938 -10.914062 2.703125 -11.1875 C 3.316406 -11.457031 4.054688 -11.59375 4.921875 -11.59375 C 5.796875 -11.59375 6.546875 -11.472656 7.171875 -11.234375 C 7.804688 -11.003906 8.335938 -10.648438 8.765625 -10.171875 L 7.65625 -8.640625 L 7.453125 -8.640625 C 7.128906 -8.984375 6.757812 -9.238281 6.34375 -9.40625 C 5.925781 -9.570312 5.453125 -9.65625 4.921875 -9.65625 C 4.296875 -9.65625 3.820312 -9.546875 3.5 -9.328125 C 3.175781 -9.109375 3.015625 -8.804688 3.015625 -8.421875 C 3.015625 -8.066406 3.128906 -7.78125 3.359375 -7.5625 C 3.585938 -7.351562 3.976562 -7.1875 4.53125 -7.0625 L 6.03125 -6.75 C 7.144531 -6.519531 7.953125 -6.125 8.453125 -5.5625 C 8.953125 -5 9.203125 -4.269531 9.203125 -3.375 C 9.203125 -2.65625 9.046875 -2.03125 8.734375 -1.5 C 8.429688 -0.976562 7.96875 -0.566406 7.34375 -0.265625 C 6.726562 0.0234375 5.96875 0.171875 5.0625 0.171875 Z M 5.0625 0.171875 "/></g></g></g><g fill="#d9d9d9" fill-opacity="1"><g transform="translate(757.200233, 496.124995)"><g><path d="M 9.15625 -11.421875 L 9.15625 -9.53125 L 5.859375 -9.53125 L 5.859375 0 L 3.609375 0 L 3.609375 -9.53125 L 0.3125 -9.53125 L 0.3125 -11.421875 Z M 9.15625 -11.421875 "/></g></g></g></svg>